<?xml version="1.0" standalone="no"?>
<!DOCTYPE svg PUBLIC "-//W3C//DTD SVG 20010904//EN"
 "http://www.w3.org/TR/2001/REC-SVG-20010904/DTD/svg10.dtd">
<svg version="1.0" xmlns="http://www.w3.org/2000/svg"
 width="24.000000pt" height="24.000000pt" viewBox="0 0 24.000000 24.000000"
 preserveAspectRatio="xMidYMid meet">
<metadata>
Created by potrace 1.10, written by Peter Selinger 2001-2011
</metadata>
<g transform="translate(0.000000,24.000000) scale(0.100000,-0.100000)"
fill="#000000" stroke="none">
<path d="M83 233 c-31 -6 -70 -48 -77 -83 -18 -93 51 -162 144 -144 31 7 80
48 80 68 0 6 3 21 6 34 4 12 2 22 -4 22 -5 0 -12 -13 -15 -30 -16 -76 -112
-105 -167 -50 -55 55 -26 151 50 167 17 3 30 9 30 14 0 9 -8 10 -47 2z"/>
<path d="M170 155 l-54 -55 -28 27 c-20 19 -28 22 -28 12 0 -15 40 -59 53 -59
10 0 108 93 118 112 18 33 -6 18 -61 -37z"/>
</g>
</svg>
